<svg xmlns="http://www.w3.org/2000/svg" viewBox="0 0 1600 900" role="img" aria-label="Napkinbets live room editorial art">
  <defs>
    <linearGradient id="bg" x1="0%" x2="100%" y1="0%" y2="100%">
      <stop offset="0%" stop-color="#f8f1e1" />
      <stop offset="100%" stop-color="#efe4cf" />
    </linearGradient>
    <radialGradient id="lamp" cx="86%" cy="10%" r="46%">
      <stop offset="0%" stop-color="#eca94c" stop-opacity=".32" />
      <stop offset="100%" stop-color="#eca94c" stop-opacity="0" />
    </radialGradient>
  </defs>
  <rect width="1600" height="900" fill="url(#bg)" rx="42" />
  <rect width="1600" height="900" fill="url(#lamp)" rx="42" />
  <path d="M0 640c174-54 332-52 480 6 172 66 286 72 432 20 176-62 318-64 688 14V900H0Z" fill="#1b7c47" fill-opacity=".1" />
  <g transform="translate(230 188) rotate(-7)">
    <rect width="514" height="310" fill="#fff9ef" stroke="#255937" stroke-opacity=".12" stroke-width="4" rx="30" />
    <line x1="58" x2="454" y1="84" y2="84" stroke="#255937" stroke-opacity=".16" stroke-width="6" />
    <line x1="58" x2="454" y1="138" y2="138" stroke="#255937" stroke-opacity=".12" stroke-width="5" />
    <line x1="58" x2="390" y1="190" y2="190" stroke="#255937" stroke-opacity=".12" stroke-width="5" />
    <rect x="58" y="226" width="154" height="40" fill="#1b7c47" fill-opacity=".16" rx="18" />
    <rect x="228" y="226" width="120" height="40" fill="#d3891a" fill-opacity=".18" rx="18" />
  </g>
  <g transform="translate(944 160) rotate(7)">
    <rect width="246" height="454" fill="#15202b" rx="36" />
    <rect x="14" y="18" width="218" height="418" fill="#faf5e8" rx="28" />
    <rect x="38" y="60" width="170" height="82" fill="#1b7c47" fill-opacity=".14" rx="20" />
    <rect x="38" y="166" width="170" height="20" fill="#15202b" fill-opacity=".16" rx="10" />
    <rect x="38" y="208" width="134" height="18" fill="#15202b" fill-opacity=".11" rx="9" />
    <rect x="38" y="262" width="170" height="118" fill="#f3e7cf" rx="24" />
    <circle cx="84" cy="321" r="28" fill="#d3891a" fill-opacity=".3" />
    <rect x="124" y="296" width="64" height="16" fill="#15202b" fill-opacity=".16" rx="8" />
    <rect x="124" y="324" width="52" height="14" fill="#15202b" fill-opacity=".1" rx="7" />
  </g>
  <g transform="translate(1078 622) rotate(-10)">
    <rect width="286" height="172" fill="#fff8ec" stroke="#255937" stroke-opacity=".1" stroke-width="4" rx="28" />
    <path d="M46 44H238" stroke="#255937" stroke-opacity=".2" stroke-width="8" stroke-linecap="round" />
    <path d="M46 88H210" stroke="#255937" stroke-opacity=".16" stroke-width="6" stroke-linecap="round" />
    <path d="M46 126H170" stroke="#255937" stroke-opacity=".16" stroke-width="6" stroke-linecap="round" />
  </g>
  <circle cx="1242" cy="736" r="54" fill="#fff8ec" stroke="#255937" stroke-opacity=".14" stroke-width="5" />
</svg>
